<svg width="29" height="24" viewBox="0 0 29 24" fill="none" xmlns="http://www.w3.org/2000/svg">
<path d="M28.852 19.7027C28.5275 17.5998 26.8072 15.3359 25.4146 13.8077C24.9199 13.2646 24.4095 12.7436 23.899 12.2637C26.2653 10.7039 30.0998 7.99159 28.5118 4.81832C28.4771 4.75201 28.4456 4.6857 28.4141 4.62887C27.9824 3.89002 27.3176 3.3943 26.5016 3.20169C25.3894 2.93962 23.981 3.25852 22.8278 4.02895C21.1925 5.12459 20.0488 6.83911 19.5793 8.84411C19.2958 8.6736 19.0185 8.5031 18.7444 8.32628C18.486 8.16209 18.423 8.11789 18.1552 7.96317L17.2068 9.62085L17.0367 9.92081L16.7374 10.4386C16.9579 10.5713 16.9768 10.5744 17.1974 10.7039C17.3833 10.827 17.5692 10.9407 17.7551 11.0449C17.9977 11.1933 18.234 11.3227 18.4451 11.468C18.5585 11.5406 18.6719 11.6227 18.7917 11.7111C17.7141 12.1026 16.4916 12.2731 16.1765 11.8753C16.1576 11.8595 16.1419 11.8342 16.1261 11.809C15.8173 11.2722 16.2395 10.0629 17.2131 8.65782C18.8736 6.28655 20.4049 5.00461 22.4465 3.60585C22.6671 3.4606 22.894 3.32167 23.146 3.17643C23.2752 3.10381 23.3949 3.03118 23.5273 2.94909L23.606 2.90173L24.3622 2.46284L24.0534 1.93238L23.1775 0.413631L22.9412 0C22.8845 0 21.5738 0.836733 21.4509 0.909355C21.1768 1.07354 20.8901 1.29457 20.6223 1.48086C19.9826 1.92606 18.6404 2.87647 16.7594 4.74254C15.956 5.54138 15.1242 6.6244 14.4562 7.76425C13.7914 6.6244 12.9564 5.54138 12.1561 4.74254C10.2751 2.87647 8.92977 1.92606 8.29016 1.48086C8.02235 1.29457 7.73878 1.07354 7.46151 0.909355C7.34178 0.836733 6.02791 0 5.9712 0L5.73489 0.413631L4.86213 1.93238L4.55336 2.46284L5.30639 2.90173L5.38831 2.94909C5.51749 3.03118 5.64037 3.10381 5.76955 3.17643C6.01846 3.32167 6.24532 3.4606 6.46587 3.60585C8.50756 5.00461 10.0388 6.28655 11.7024 8.65782C12.6729 10.0629 13.0951 11.2722 12.7863 11.809C12.7705 11.8342 12.7548 11.8595 12.739 11.8753C12.424 12.2731 11.1983 12.1026 10.1208 11.7111C10.2436 11.6227 10.3571 11.5406 10.4705 11.468C10.6784 11.3227 10.9147 11.1933 11.1574 11.0449C11.3433 10.9407 11.5323 10.827 11.7182 10.7039C11.9356 10.5744 11.9576 10.5713 12.1751 10.4386L11.8757 9.92081L11.7056 9.62085L10.7572 7.96317C10.4894 8.11789 10.4295 8.16209 10.168 8.32628C9.8939 8.5031 9.61978 8.6736 9.33306 8.84411C8.8636 6.83911 7.72302 5.12459 6.08463 4.02895C4.9346 3.25852 3.52305 2.93962 2.41399 3.20169C1.59479 3.3943 0.929976 3.89002 0.501472 4.62887C0.466814 4.6857 0.435305 4.75201 0.403798 4.81832C-1.18419 7.99159 2.64714 10.7039 5.01337 12.2637C4.50294 12.7436 3.99252 13.2646 3.49785 13.8077C2.10521 15.3359 0.388043 17.5998 0.0635147 19.7027C-0.00265137 20.0942 -0.100324 21.1015 0.265165 21.9635C0.331331 22.1087 0.403798 22.2476 0.476265 22.3771C1.96658 24.9662 5.37255 23.8232 6.85341 23.2359L9.42444 22.0519C9.51266 22.0013 9.61978 21.9445 9.69855 21.9066C9.84664 21.8308 9.98212 21.7582 10.0892 21.6951L10.2909 21.5561C11.5165 20.751 13.2967 19.5827 14.4562 18.165C15.6157 19.5827 17.3959 20.751 18.6215 21.5561L18.8263 21.6951C18.9303 21.7582 19.0689 21.8308 19.2139 21.9066C19.2958 21.9445 19.3998 22.0013 19.4911 22.0519L22.059 23.2359C23.543 23.8232 26.9458 24.9662 28.4362 22.3771C28.5118 22.2476 28.5842 22.1087 28.6473 21.9635C29.0127 21.1015 28.9151 20.0942 28.852 19.7027ZM21.703 10.145C21.8479 8.42416 23.0231 6.54546 24.5796 5.75925C25.2917 5.40245 26.6371 5.25405 26.5236 6.42548C26.4102 7.51481 24.3843 9.12197 23.5178 9.73136C23.0546 10.0471 22.5442 10.3155 22.0748 10.6407C21.9708 10.6976 21.8731 10.7702 21.7754 10.8428C21.7093 10.827 21.6935 10.5334 21.6935 10.3313C21.6935 10.2492 21.703 10.1766 21.703 10.145ZM2.38878 6.42548C2.27535 5.25405 3.62073 5.40245 4.3328 5.75925C5.88928 6.54546 7.06451 8.42416 7.2126 10.145C7.2126 10.1766 7.2189 10.2492 7.2189 10.3313C7.2189 10.5334 7.20315 10.827 7.13698 10.8428C7.04246 10.7702 6.94479 10.6976 6.83766 10.6407C6.3682 10.3155 5.85777 10.0471 5.39461 9.73136C4.52815 9.12197 2.50221 7.51481 2.38878 6.42548ZM6.06887 20.2489C6.07517 20.331 6.09408 20.4194 6.10983 20.5173C6.00271 20.5742 5.84832 20.6373 5.68763 20.7099C4.57856 21.1488 3.23949 21.3604 2.90866 20.9373C2.8929 20.9215 2.874 20.8994 2.86769 20.8741C2.55262 20.3373 2.97167 19.128 3.95471 17.723C4.66678 16.7062 5.58365 15.6832 6.55409 14.717C6.66122 14.7739 6.77464 14.8244 6.88807 14.8812C7.09917 14.9949 7.32603 15.0991 7.47096 15.2128C6.52888 16.6273 6.02791 18.3797 6.06887 20.2489ZM13.2558 15.4875C13.1518 16.5768 11.1164 18.1839 10.2499 18.7933C9.69225 19.1754 9.04319 19.4943 8.50756 19.9079C8.41934 19.8827 8.42564 19.3238 8.4351 19.2101C8.44455 19.0775 8.4603 18.9575 8.48236 18.8281C8.51702 18.6323 8.56428 18.4365 8.61469 18.2503C8.72812 17.884 8.87305 17.5209 9.05895 17.1704C9.08415 17.1041 9.12511 17.0315 9.16292 16.9683C9.66705 16.0811 10.3886 15.317 11.2298 14.8717C11.255 14.856 11.2865 14.8402 11.3117 14.8244C11.6048 14.676 12.0018 14.5623 12.3672 14.5623C12.4397 14.5623 12.5122 14.5718 12.5752 14.5781C12.6414 14.5876 12.7075 14.6034 12.7705 14.6286C12.7705 14.6286 12.7758 14.6307 12.7863 14.6349C12.843 14.6539 12.8997 14.676 12.9501 14.7107C13.0069 14.7423 13.0541 14.7833 13.0951 14.8307C13.1675 14.9128 13.2243 15.017 13.2495 15.1559C13.2558 15.2128 13.2652 15.2791 13.2652 15.3422C13.2652 15.3833 13.2652 15.4306 13.2558 15.4875ZM20.4049 19.9079C19.8724 19.4943 19.2233 19.1754 18.6625 18.7933C17.796 18.1839 15.7606 16.5768 15.6566 15.4875C15.6472 15.4306 15.6472 15.3833 15.6472 15.3422C15.6472 15.2791 15.6566 15.2128 15.6661 15.1559C15.6882 15.017 15.7449 14.9128 15.8173 14.8307C15.8583 14.7833 15.9087 14.7423 15.9654 14.7107C16.0127 14.676 16.0694 14.6539 16.1261 14.6349C16.1261 14.6349 16.1314 14.6328 16.1419 14.6286C16.208 14.6034 16.271 14.5876 16.3372 14.5781C16.4034 14.5718 16.4758 14.5623 16.5483 14.5623C16.9138 14.5623 17.3108 14.676 17.6007 14.8244C17.6259 14.8402 17.6574 14.856 17.6826 14.8717C18.527 15.317 19.2454 16.0811 19.7495 16.9683C19.7905 17.0315 19.8314 17.1041 19.8535 17.1704C20.0425 17.5209 20.1874 17.884 20.3009 18.2503C20.3481 18.4365 20.3986 18.6323 20.4301 18.8281C20.4553 18.9575 20.471 19.0775 20.4773 19.2101C20.4868 19.3238 20.4962 19.8827 20.4049 19.9079ZM26.0479 20.8741C26.0384 20.8994 26.0227 20.9215 26.0069 20.9373C25.6729 21.3604 24.337 21.1488 23.2248 20.7099C23.0641 20.6373 22.9097 20.5742 22.8057 20.5173C22.8215 20.4194 22.8372 20.331 22.8467 20.2489C22.8845 18.3797 22.3835 16.6273 21.4446 15.2128C21.5895 15.0991 21.8164 14.9949 22.0275 14.8812C22.1409 14.8244 22.2543 14.7739 22.3583 14.717C23.3319 15.6832 24.2488 16.7062 24.9609 17.723C25.9407 19.128 26.3629 20.3373 26.0479 20.8741Z" fill="#F9583B"/>
</svg>
